<svg width="24" height="24" fill="none" aria-label="home"><path fill-rule="evenodd" clip-rule="evenodd" d="M11.72 2.93a.45.45 0 0 1 .56 0l.34-.43-.34.43 9.37 7.5a.56.56 0 1 0 .7-.86l-9.38-7.5a1.55 1.55 0 0 0-1.94 0l-9.38 7.5a.56.56 0 0 0 .7.86l9.37-7.5zm7.17 9.13v-1.4l.91.69a.5.5 0 0 1 .2.4V20a2 2 0 0 1-2 2h-4a.5.5 0 0 1-.5-.5V17a1 1 0 0 0-1-1h-1a1 1 0 0 0-1 1v4.5a.5.5 0 0 1-.5.5H6a2 2 0 0 1-2-2v-8.25a.5.5 0 0 1 .2-.4l.91-.68V20c0 .5.4.89.89.89h3.39V17a2.11 2.11 0 0 1 2.11-2.11h1A2.11 2.11 0 0 1 14.61 17v3.89H18a.89.89 0 0 0 .89-.89v-7.95z" fill="#A8A8A8"></path></svg>