<svg xmlns="http://www.w3.org/2000/svg" version="1.1" xmlns:xlink="http://www.w3.org/1999/xlink" xmlns:svgjs="http://svgjs.com/svgjs" width="512" height="512" x="0" y="0" viewBox="0 0 64 64" style="enable-background:new 0 0 512 512" xml:space="preserve" class=""><g transform="matrix(0.8600000000000001,0,0,0.8599999999999999,4.479999732971187,4.567920036315929)"><linearGradient xmlns="http://www.w3.org/2000/svg" id="linear-gradient" gradientUnits="userSpaceOnUse" x1="8.069" x2="56.2" y1="32.628" y2="32.628"><stop offset="0" stop-color="rgb(0,0,0)"></stop><stop offset="1" stop-color="rgb(0,0,0)"></stop></linearGradient><linearGradient xmlns="http://www.w3.org/2000/svg" id="linear-gradient-2" x1="8.069" x2="56.2" xmlns:xlink="http://www.w3.org/1999/xlink" xlink:href="#linear-gradient" y1="27" y2="27"></linearGradient><path xmlns="http://www.w3.org/2000/svg" d="m47.732 3h-31.464a6.006 6.006 0 0 0 -6 6v53.256l21.732-11.014 21.732 11.014v-53.256a6.006 6.006 0 0 0 -6-6zm2 52.744-17.732-8.986-17.732 8.986v-46.744a2 2 0 0 1 2-2h31.464a2 2 0 0 1 2 2z" fill="url(#linear-gradient)" data-original="url(#linear-gradient)" class=""></path><path xmlns="http://www.w3.org/2000/svg" d="m34 17h-4v8h-8v4h8v8h4v-8h8v-4h-8z" fill="url(#linear-gradient-2)" data-original="url(#linear-gradient-2)" class=""></path></g></svg>