<svg xmlns="http://www.w3.org/2000/svg" version="1.1" xmlns:xlink="http://www.w3.org/1999/xlink" xmlns:svgjs="http://svgjs.com/svgjs" width="512" height="512" x="0" y="0" viewBox="0 0 24 24" style="enable-background:new 0 0 512 512" xml:space="preserve" class=""><g><g xmlns="http://www.w3.org/2000/svg" id="Layer_31" data-name="Layer 31"><path d="m17 1h-10a3.12 3.12 0 0 0 -3 3.21v15.58a3.21 3.21 0 0 0 1.76 2.92 2.8 2.8 0 0 0 3-.34l2.68-2.11a.85.85 0 0 1 1.08 0l2.68 2.11a2.82 2.82 0 0 0 3 .34 3.21 3.21 0 0 0 1.8-2.92v-15.58a3.12 3.12 0 0 0 -3-3.21zm1 18.79a1.21 1.21 0 0 1 -.63 1.12.81.81 0 0 1 -.91-.11l-2.68-2.11a2.83 2.83 0 0 0 -3.56 0l-2.68 2.11a.81.81 0 0 1 -.91.11 1.21 1.21 0 0 1 -.63-1.12v-15.58a1.12 1.12 0 0 1 1-1.21h10a1.12 1.12 0 0 1 1 1.21zm-2.73-13.44a1 1 0 0 1 0 1.42l-2.62 2.62a1 1 0 0 1 -.71.29 1 1 0 0 1 -.71-.29l-1.31-1.31a1 1 0 0 1 1.42-1.42l.6.61 1.91-1.92a1 1 0 0 1 1.42 0z" fill="#000000" data-original="#000000" class=""></path></g></g></svg>