<svg
  version="1.2"
  xmlns="http://www.w3.org/2000/svg"
  viewBox="0 0 560 109"
  width="560"
  height="109"
>
	<title>logo-svg</title>
	<style>
		.s0 { fill: #000000 } 
	</style>
	<g id="Layer">
		<path
      id="Layer"
      fill-rule="evenodd"
      class="s0"
      d="m107.4 56.4c0 20.5-16.5 37.2-37 37.2c-20.5 0-37-16.7-37-37.2c0-20.5 16.5-37.2 37-37.2c20.5 0 37 16.7 37 37.2zm40.6 0c0 19.3-8.3 35-18.5 35c-10.2 0-18.5-15.7-18.5-35c0-19.3 8.3-35 18.5-35c10.2 0 18.5 15.7 18.5 35zm16.6 0c0 17.3-2.9 31.4-6.5 31.4c-3.6 0-6.5-14.1-6.5-31.4c0-17.3 2.9-31.4 6.5-31.4c3.6 0 6.5 14.1 6.5 31.4zm96.3-27.3v55.9c0.3 3.7 2.3 4.8 5.8 5.6h0.1v0.8h-26.8v-0.8h0.1c3.4-0.8 5.4-1.9 5.7-5.6v-54.3l-25.8 60.6h-1.4l-25.1-59v51.4c0 4.6 2 5.9 5.8 6.8h0.1v0.8h-15.4v-0.8h0.1c3.8-0.9 5.8-2.1 5.8-6.8v-54.5c0-4.6-2-5.9-5.8-6.8h-0.1v-0.8h22.6l19.5 45.9l19.5-45.9h21v0.8h-0.1c-3.8 0.9-5.7 2.2-5.6 6.7zm32.6 52.5c6.4 0.5 12.1-3.4 15.2-9.9l0.9 0.3c-1.7 12.1-8.9 21.1-21.2 21.1c-14 0-21.9-11.7-22.2-26.3c-0.1-0.9 0-1.8 0-2.7q0-0.3 0-0.6q0-0.3 0-0.6c0.5-6.4 2.6-12.2 6-16.4c2.1-2.6 4.7-4.7 7.6-6c2.5-1.3 6.1-2 9-2h0.1c5.6 0 11 1.9 14.6 5.4c4.1 4 6.3 9.8 6.4 17.3v0.1h-31.4c-0.6 10.7 6.1 19.6 15 20.3zm3.2-23.1c0.2-7.6-1-12.8-3.5-15.2q-1.8-1.8-4.5-1.8c-5.9 0.1-9.5 7.2-9.9 17zm69.6 32.3v0.8h-20.9v-8.1c-2.4 6-7.6 9.6-14.1 9.6c-11.1 0-18.6-10.2-18.6-25.4c0-8.5 2.5-15.8 7.1-21.2c4.4-5.2 10.6-8 17.3-8c3.3 0 6 0.7 8.3 2.2v-8.9c0-2-0.5-3.4-1.5-4.3c-1.3-1.2-3.5-1.7-6.7-1.4h-0.1v-0.8l23.3-6.9v65.1c0 4.9 2 6.3 5.8 7.2zm-21.1-9.7v-35.9c-1.1-2.4-3.2-3.7-5.9-3.7c-6.4 0-10.6 8.7-10.6 22.1c0 6.4 1.1 11.8 3.1 15.7c1.9 3.6 4.5 5.6 7.4 5.6c2.9 0 5.1-1.4 6.1-3.8zm32.6-45.6c-4.7 0-8.4-3.6-8.4-8.3c0-4.6 3.7-8.3 8.4-8.3c4.7 0 8.3 3.6 8.3 8.3c0 4.8-3.5 8.4-8.3 8.3zm13.9 55.1v0.8h-20.9v-38.8c0-5.2-1.3-6.8-5.8-7.2h-0.1v-0.8l20.9-6v44.9c0 4.9 2 6.3 5.8 7.2zm53.6 0.9h-20.9v-8.3c-2.3 6-7.7 9.8-13.9 9.8c-7.3 0-11.9-3.4-13.7-9.7l-0.4-1.6c-0.3-1.7-0.4-3.3-0.4-5v-24c0-5.2-1.3-6.8-5.8-7.2h-0.1v-0.8l20.9-6v37.7c0 5.5 2.5 8.6 7 8.6c2.9-0.1 5.2-1.6 6.4-4v-28.5c0-5.3-1.1-6.9-4.8-7.3h-0.1v-0.8l19.9-5.8v44.9c0 4.9 2 6.3 5.8 7.2zm81.2-0.2h-20.9v-37.2c0-6-2.2-8.9-6.6-8.9c-3.6 0-5.5 2.7-6.4 4.9c0.2 1.2 0.3 2.3 0.3 3.5v31.1c0 3.7 1.1 5.1 4.4 5.9h0.1v0.8h-19.5v-37.2c0-5.9-2.3-8.9-6.6-8.9c-3.5 0-5.2 2.4-6.1 4.5v35c0 3.7 1.1 5.1 4.4 5.9h0.1v0.8h-19.5v-39.1c0-5.2-1.3-6.8-5.8-7.2h-0.1v-0.8l20.9-5.8v8.8c2.1-5.6 7-8.9 13.3-8.9c7.2 0 12 3.4 13.7 9.6c2.1-5.8 7.6-9.6 14.1-9.6c9 0 14.3 5.7 14.3 15.2v30.5c0 3.7 1.6 5.5 5.8 6.5h0.1z"
    />
	</g>
</svg>
